<mxfile host="app.diagrams.net" modified="2023-07-12T22:01:24.326Z" agent="Mozilla/5.0 (Windows NT 10.0; Win64; x64) AppleWebKit/537.36 (KHTML, like Gecko) Chrome/114.0.0.0 Safari/537.36" etag="pCwA9WXpS0_D8CO1f3XK" version="21.5.0" type="device" pages="3">
  <diagram id="jGlyCVfKYFV7760R7Oyc" name="Sveltekit page">
    <mxGraphModel dx="1434" dy="764" grid="1" gridSize="10" guides="1" tooltips="1" connect="1" arrows="1" fold="1" page="1" pageScale="1" pageWidth="827" pageHeight="1169" math="0" shadow="0">
      <root>
        <mxCell id="0" />
        <mxCell id="1" parent="0" />
        <mxCell id="_iR7ujcxn2POXH3rkq9Y-3" value="" style="edgeStyle=orthogonalEdgeStyle;rounded=0;orthogonalLoop=1;jettySize=auto;html=1;" edge="1" parent="1" source="_iR7ujcxn2POXH3rkq9Y-1" target="_iR7ujcxn2POXH3rkq9Y-2">
          <mxGeometry relative="1" as="geometry" />
        </mxCell>
        <mxCell id="_iR7ujcxn2POXH3rkq9Y-1" value="+layout.server.ts" style="rounded=0;whiteSpace=wrap;html=1;" vertex="1" parent="1">
          <mxGeometry x="360" y="360" width="120" height="60" as="geometry" />
        </mxCell>
        <mxCell id="_iR7ujcxn2POXH3rkq9Y-5" value="" style="edgeStyle=orthogonalEdgeStyle;rounded=0;orthogonalLoop=1;jettySize=auto;html=1;" edge="1" parent="1" source="_iR7ujcxn2POXH3rkq9Y-2" target="_iR7ujcxn2POXH3rkq9Y-4">
          <mxGeometry relative="1" as="geometry" />
        </mxCell>
        <mxCell id="_iR7ujcxn2POXH3rkq9Y-2" value="+layout.svelte" style="rounded=0;whiteSpace=wrap;html=1;" vertex="1" parent="1">
          <mxGeometry x="360" y="460" width="120" height="60" as="geometry" />
        </mxCell>
        <mxCell id="_iR7ujcxn2POXH3rkq9Y-7" value="" style="edgeStyle=orthogonalEdgeStyle;rounded=0;orthogonalLoop=1;jettySize=auto;html=1;" edge="1" parent="1" source="_iR7ujcxn2POXH3rkq9Y-4" target="_iR7ujcxn2POXH3rkq9Y-6">
          <mxGeometry relative="1" as="geometry" />
        </mxCell>
        <mxCell id="_iR7ujcxn2POXH3rkq9Y-4" value="+page.server.ts" style="rounded=0;whiteSpace=wrap;html=1;" vertex="1" parent="1">
          <mxGeometry x="360" y="560" width="120" height="60" as="geometry" />
        </mxCell>
        <mxCell id="_iR7ujcxn2POXH3rkq9Y-9" value="" style="edgeStyle=orthogonalEdgeStyle;rounded=0;orthogonalLoop=1;jettySize=auto;html=1;" edge="1" parent="1" source="_iR7ujcxn2POXH3rkq9Y-6" target="_iR7ujcxn2POXH3rkq9Y-8">
          <mxGeometry relative="1" as="geometry" />
        </mxCell>
        <mxCell id="_iR7ujcxn2POXH3rkq9Y-6" value="+page.svelte" style="rounded=0;whiteSpace=wrap;html=1;" vertex="1" parent="1">
          <mxGeometry x="360" y="660" width="120" height="60" as="geometry" />
        </mxCell>
        <mxCell id="_iR7ujcxn2POXH3rkq9Y-13" value="" style="edgeStyle=orthogonalEdgeStyle;rounded=0;orthogonalLoop=1;jettySize=auto;html=1;" edge="1" parent="1" source="_iR7ujcxn2POXH3rkq9Y-8" target="_iR7ujcxn2POXH3rkq9Y-12">
          <mxGeometry relative="1" as="geometry" />
        </mxCell>
        <mxCell id="_iR7ujcxn2POXH3rkq9Y-8" value="Return entire page to user" style="rounded=0;whiteSpace=wrap;html=1;" vertex="1" parent="1">
          <mxGeometry x="360" y="760" width="120" height="60" as="geometry" />
        </mxCell>
        <mxCell id="_iR7ujcxn2POXH3rkq9Y-14" style="edgeStyle=orthogonalEdgeStyle;rounded=0;orthogonalLoop=1;jettySize=auto;html=1;exitX=1;exitY=0.5;exitDx=0;exitDy=0;entryX=1;entryY=0.5;entryDx=0;entryDy=0;" edge="1" parent="1" source="_iR7ujcxn2POXH3rkq9Y-12" target="_iR7ujcxn2POXH3rkq9Y-4">
          <mxGeometry relative="1" as="geometry">
            <Array as="points">
              <mxPoint x="520" y="890" />
              <mxPoint x="520" y="590" />
            </Array>
          </mxGeometry>
        </mxCell>
        <mxCell id="_iR7ujcxn2POXH3rkq9Y-12" value="User navigates to a different page" style="shape=parallelogram;perimeter=parallelogramPerimeter;whiteSpace=wrap;html=1;fixedSize=1;rounded=0;size=10;" vertex="1" parent="1">
          <mxGeometry x="360" y="860" width="120" height="60" as="geometry" />
        </mxCell>
        <mxCell id="_iR7ujcxn2POXH3rkq9Y-16" value="" style="edgeStyle=orthogonalEdgeStyle;rounded=0;orthogonalLoop=1;jettySize=auto;html=1;" edge="1" parent="1" source="_iR7ujcxn2POXH3rkq9Y-15" target="_iR7ujcxn2POXH3rkq9Y-1">
          <mxGeometry relative="1" as="geometry" />
        </mxCell>
        <mxCell id="_iR7ujcxn2POXH3rkq9Y-15" value="Website Load" style="rounded=1;whiteSpace=wrap;html=1;arcSize=50;" vertex="1" parent="1">
          <mxGeometry x="360" y="260" width="120" height="60" as="geometry" />
        </mxCell>
      </root>
    </mxGraphModel>
  </diagram>
  <diagram name="Login" id="zK_WZEvHl3Ghuwtc68no">
    <mxGraphModel dx="1687" dy="899" grid="1" gridSize="10" guides="1" tooltips="1" connect="1" arrows="1" fold="1" page="1" pageScale="1" pageWidth="827" pageHeight="1169" math="0" shadow="0">
      <root>
        <mxCell id="0" />
        <mxCell id="1" parent="0" />
        <mxCell id="c4s2cbbHMjc6cLBi858I-23" value="" style="edgeStyle=orthogonalEdgeStyle;rounded=0;orthogonalLoop=1;jettySize=auto;html=1;" edge="1" parent="1" source="c4s2cbbHMjc6cLBi858I-19" target="c4s2cbbHMjc6cLBi858I-22">
          <mxGeometry relative="1" as="geometry" />
        </mxCell>
        <mxCell id="c4s2cbbHMjc6cLBi858I-19" value="Login Page" style="rounded=1;whiteSpace=wrap;html=1;arcSize=50;" vertex="1" parent="1">
          <mxGeometry x="360" y="60" width="120" height="60" as="geometry" />
        </mxCell>
        <mxCell id="c4s2cbbHMjc6cLBi858I-25" value="" style="edgeStyle=orthogonalEdgeStyle;rounded=0;orthogonalLoop=1;jettySize=auto;html=1;" edge="1" parent="1" source="c4s2cbbHMjc6cLBi858I-22" target="c4s2cbbHMjc6cLBi858I-24">
          <mxGeometry relative="1" as="geometry" />
        </mxCell>
        <mxCell id="c4s2cbbHMjc6cLBi858I-22" value="Generate Google OAuth URL with state token" style="rounded=0;whiteSpace=wrap;html=1;spacing=13;" vertex="1" parent="1">
          <mxGeometry x="360" y="160" width="120" height="60" as="geometry" />
        </mxCell>
        <mxCell id="c4s2cbbHMjc6cLBi858I-29" value="" style="edgeStyle=orthogonalEdgeStyle;rounded=0;orthogonalLoop=1;jettySize=auto;html=1;" edge="1" parent="1" source="c4s2cbbHMjc6cLBi858I-24" target="c4s2cbbHMjc6cLBi858I-28">
          <mxGeometry relative="1" as="geometry" />
        </mxCell>
        <mxCell id="c4s2cbbHMjc6cLBi858I-24" value="Redirect User to URL" style="rounded=0;whiteSpace=wrap;html=1;spacing=4;" vertex="1" parent="1">
          <mxGeometry x="360" y="260" width="120" height="60" as="geometry" />
        </mxCell>
        <mxCell id="c4s2cbbHMjc6cLBi858I-31" value="" style="edgeStyle=orthogonalEdgeStyle;rounded=0;orthogonalLoop=1;jettySize=auto;html=1;" edge="1" parent="1" source="c4s2cbbHMjc6cLBi858I-28" target="c4s2cbbHMjc6cLBi858I-30">
          <mxGeometry relative="1" as="geometry" />
        </mxCell>
        <mxCell id="c4s2cbbHMjc6cLBi858I-28" value="User Login to Google" style="shape=parallelogram;perimeter=parallelogramPerimeter;whiteSpace=wrap;html=1;fixedSize=1;rounded=0;spacing=13;size=10;" vertex="1" parent="1">
          <mxGeometry x="360" y="360" width="120" height="40" as="geometry" />
        </mxCell>
        <mxCell id="c4s2cbbHMjc6cLBi858I-34" style="edgeStyle=orthogonalEdgeStyle;rounded=0;orthogonalLoop=1;jettySize=auto;html=1;exitX=1;exitY=0.5;exitDx=0;exitDy=0;entryX=1;entryY=0.5;entryDx=0;entryDy=0;" edge="1" parent="1" source="c4s2cbbHMjc6cLBi858I-30" target="c4s2cbbHMjc6cLBi858I-19">
          <mxGeometry relative="1" as="geometry">
            <Array as="points">
              <mxPoint x="520" y="480" />
              <mxPoint x="520" y="80" />
            </Array>
          </mxGeometry>
        </mxCell>
        <mxCell id="c4s2cbbHMjc6cLBi858I-35" value="No" style="edgeLabel;html=1;align=center;verticalAlign=middle;resizable=0;points=[];" vertex="1" connectable="0" parent="c4s2cbbHMjc6cLBi858I-34">
          <mxGeometry x="0.0578" y="1" relative="1" as="geometry">
            <mxPoint y="-1" as="offset" />
          </mxGeometry>
        </mxCell>
        <mxCell id="c4s2cbbHMjc6cLBi858I-40" value="" style="edgeStyle=orthogonalEdgeStyle;rounded=0;orthogonalLoop=1;jettySize=auto;html=1;" edge="1" parent="1" source="c4s2cbbHMjc6cLBi858I-30" target="c4s2cbbHMjc6cLBi858I-39">
          <mxGeometry relative="1" as="geometry" />
        </mxCell>
        <mxCell id="c4s2cbbHMjc6cLBi858I-30" value="Authenticated" style="rhombus;whiteSpace=wrap;html=1;rounded=0;spacing=13;" vertex="1" parent="1">
          <mxGeometry x="360" y="440" width="120" height="80" as="geometry" />
        </mxCell>
        <mxCell id="c4s2cbbHMjc6cLBi858I-42" value="" style="edgeStyle=orthogonalEdgeStyle;rounded=0;orthogonalLoop=1;jettySize=auto;html=1;" edge="1" parent="1" source="c4s2cbbHMjc6cLBi858I-39" target="c4s2cbbHMjc6cLBi858I-41">
          <mxGeometry relative="1" as="geometry" />
        </mxCell>
        <mxCell id="c4s2cbbHMjc6cLBi858I-39" value="Return to callback" style="whiteSpace=wrap;html=1;rounded=0;spacing=13;" vertex="1" parent="1">
          <mxGeometry x="360" y="560" width="120" height="60" as="geometry" />
        </mxCell>
        <mxCell id="c4s2cbbHMjc6cLBi858I-44" value="" style="edgeStyle=orthogonalEdgeStyle;rounded=0;orthogonalLoop=1;jettySize=auto;html=1;" edge="1" parent="1" source="c4s2cbbHMjc6cLBi858I-41" target="c4s2cbbHMjc6cLBi858I-43">
          <mxGeometry relative="1" as="geometry" />
        </mxCell>
        <mxCell id="c4s2cbbHMjc6cLBi858I-41" value="Return to callback with state token and access token" style="whiteSpace=wrap;html=1;rounded=0;spacing=13;" vertex="1" parent="1">
          <mxGeometry x="360" y="660" width="120" height="60" as="geometry" />
        </mxCell>
        <mxCell id="c4s2cbbHMjc6cLBi858I-46" value="" style="edgeStyle=orthogonalEdgeStyle;rounded=0;orthogonalLoop=1;jettySize=auto;html=1;" edge="1" parent="1" source="c4s2cbbHMjc6cLBi858I-43" target="c4s2cbbHMjc6cLBi858I-45">
          <mxGeometry relative="1" as="geometry" />
        </mxCell>
        <mxCell id="c4s2cbbHMjc6cLBi858I-43" value="Get google account information using access token" style="whiteSpace=wrap;html=1;rounded=0;spacing=13;" vertex="1" parent="1">
          <mxGeometry x="360" y="760" width="120" height="60" as="geometry" />
        </mxCell>
        <mxCell id="c4s2cbbHMjc6cLBi858I-48" value="" style="edgeStyle=orthogonalEdgeStyle;rounded=0;orthogonalLoop=1;jettySize=auto;html=1;entryX=0;entryY=0.5;entryDx=0;entryDy=0;" edge="1" parent="1" source="c4s2cbbHMjc6cLBi858I-45" target="c4s2cbbHMjc6cLBi858I-52">
          <mxGeometry relative="1" as="geometry">
            <mxPoint x="280" y="910" as="targetPoint" />
            <Array as="points">
              <mxPoint x="320" y="910" />
              <mxPoint x="320" y="1120" />
            </Array>
          </mxGeometry>
        </mxCell>
        <mxCell id="c4s2cbbHMjc6cLBi858I-49" value="Yes" style="edgeLabel;html=1;align=center;verticalAlign=middle;resizable=0;points=[];" vertex="1" connectable="0" parent="c4s2cbbHMjc6cLBi858I-48">
          <mxGeometry x="0.25" y="1" relative="1" as="geometry">
            <mxPoint x="19" y="-141" as="offset" />
          </mxGeometry>
        </mxCell>
        <mxCell id="c4s2cbbHMjc6cLBi858I-51" value="" style="edgeStyle=orthogonalEdgeStyle;rounded=0;orthogonalLoop=1;jettySize=auto;html=1;" edge="1" parent="1" source="c4s2cbbHMjc6cLBi858I-45" target="c4s2cbbHMjc6cLBi858I-50">
          <mxGeometry relative="1" as="geometry" />
        </mxCell>
        <mxCell id="c4s2cbbHMjc6cLBi858I-56" value="No" style="edgeLabel;html=1;align=center;verticalAlign=middle;resizable=0;points=[];" vertex="1" connectable="0" parent="c4s2cbbHMjc6cLBi858I-51">
          <mxGeometry x="0.26" relative="1" as="geometry">
            <mxPoint y="-15" as="offset" />
          </mxGeometry>
        </mxCell>
        <mxCell id="c4s2cbbHMjc6cLBi858I-45" value="User exists" style="rhombus;whiteSpace=wrap;html=1;rounded=0;spacing=13;" vertex="1" parent="1">
          <mxGeometry x="360" y="870" width="120" height="80" as="geometry" />
        </mxCell>
        <mxCell id="c4s2cbbHMjc6cLBi858I-53" value="" style="edgeStyle=orthogonalEdgeStyle;rounded=0;orthogonalLoop=1;jettySize=auto;html=1;" edge="1" parent="1" source="c4s2cbbHMjc6cLBi858I-50" target="c4s2cbbHMjc6cLBi858I-52">
          <mxGeometry relative="1" as="geometry" />
        </mxCell>
        <mxCell id="c4s2cbbHMjc6cLBi858I-50" value="Create user" style="whiteSpace=wrap;html=1;rounded=0;spacing=13;" vertex="1" parent="1">
          <mxGeometry x="360" y="990" width="120" height="60" as="geometry" />
        </mxCell>
        <mxCell id="c4s2cbbHMjc6cLBi858I-60" value="" style="edgeStyle=orthogonalEdgeStyle;rounded=0;orthogonalLoop=1;jettySize=auto;html=1;" edge="1" parent="1" source="c4s2cbbHMjc6cLBi858I-52" target="c4s2cbbHMjc6cLBi858I-59">
          <mxGeometry relative="1" as="geometry" />
        </mxCell>
        <mxCell id="c4s2cbbHMjc6cLBi858I-52" value="Create and attach session token" style="whiteSpace=wrap;html=1;rounded=0;spacing=13;" vertex="1" parent="1">
          <mxGeometry x="360" y="1090" width="120" height="60" as="geometry" />
        </mxCell>
        <mxCell id="c4s2cbbHMjc6cLBi858I-59" value="Redirect to Homepage" style="whiteSpace=wrap;html=1;rounded=0;spacing=13;" vertex="1" parent="1">
          <mxGeometry x="520" y="1090" width="120" height="60" as="geometry" />
        </mxCell>
      </root>
    </mxGraphModel>
  </diagram>
  <diagram id="EPTk-eeHo_YapbDkliFm" name="Page-3">
    <mxGraphModel dx="1434" dy="764" grid="1" gridSize="10" guides="1" tooltips="1" connect="1" arrows="1" fold="1" page="1" pageScale="1" pageWidth="827" pageHeight="1169" math="0" shadow="0">
      <root>
        <mxCell id="0" />
        <mxCell id="1" parent="0" />
      </root>
    </mxGraphModel>
  </diagram>
</mxfile>
